<svg id="Layer_1" data-name="Layer 1" xmlns="http://www.w3.org/2000/svg" viewBox="0 0 238.61 46.37"><defs><style>.cls-1{fill:#231f20;}</style></defs><path class="cls-1" d="M93.8,327.44V291.25h0l18.81,26.64-2.4-.53L129,291.25h.1v36.19h-5.57V303.87l.34,2.83-12.63,17.91h-.09L98.26,306.7l1-2.59v23.33Z" transform="translate(-93.8 -291.25)"/><path class="cls-1" d="M147.22,328a12.65,12.65,0,0,1-6.07-1.39,9.58,9.58,0,0,1-3.91-3.84,11.48,11.48,0,0,1-1.34-5.62,10.19,10.19,0,0,1,1.53-5.52,11.38,11.38,0,0,1,4.15-3.91,11.65,11.65,0,0,1,5.79-1.47,10,10,0,0,1,6.89,2.43,12.17,12.17,0,0,1,3.62,6.84L141.51,321l-1.2-3L153,313.42l-1.05.68a6.23,6.23,0,0,0-1.73-2.57,4.78,4.78,0,0,0-3.31-1.08,5.5,5.5,0,0,0-3,.81,5.81,5.81,0,0,0-2,2.24,6.9,6.9,0,0,0-.74,3.28,7.17,7.17,0,0,0,.81,3.53,5.79,5.79,0,0,0,2.21,2.26,6.27,6.27,0,0,0,3.17.79,6.75,6.75,0,0,0,2.4-.43,9.34,9.34,0,0,0,2.16-1.15l2.45,4a15,15,0,0,1-3.48,1.61A12.2,12.2,0,0,1,147.22,328Z" transform="translate(-93.8 -291.25)"/><path class="cls-1" d="M165.13,298.21h5.37v8.93h5.28v4.17H170.5v16.13h-5.37V311.31h-3.51v-4.17h3.51Z" transform="translate(-93.8 -291.25)"/><path class="cls-1" d="M189.61,328a11.2,11.2,0,0,1-5.21-1.2,8.73,8.73,0,0,1-3.67-3.58,13.28,13.28,0,0,1,.07-11.81,10.07,10.07,0,0,1,3.74-3.81,9.92,9.92,0,0,1,5.07-1.35,8.49,8.49,0,0,1,4.7,1.16,9.6,9.6,0,0,1,2.83,2.73l-.29.77.53-3.74h5v20.3H197V322.5l.53,1.29c-.13.19-.38.51-.75.94a9.27,9.27,0,0,1-1.58,1.41,9.81,9.81,0,0,1-2.4,1.3A8.72,8.72,0,0,1,189.61,328Zm1.48-4.42a6.86,6.86,0,0,0,2.64-.5,5.18,5.18,0,0,0,2-1.49,6.44,6.44,0,0,0,1.2-2.33v-4.41a5.54,5.54,0,0,0-1.27-2.19,6.39,6.39,0,0,0-2.11-1.46,6.73,6.73,0,0,0-2.67-.53,5.91,5.91,0,0,0-3.07.82,6,6,0,0,0-2.21,2.25,6.65,6.65,0,0,0-.81,3.31,6.47,6.47,0,0,0,.86,3.32,6.67,6.67,0,0,0,2.28,2.35A6,6,0,0,0,191.09,323.55Z" transform="translate(-93.8 -291.25)"/><path class="cls-1" d="M207.89,292.69h6.48l8.69,24.77-1-.39,6.72-17.18,2.59,7.58L221.86,329Zm17,0h5.57l9.6,24.24-1.1-.19,8-24.05h6L239.29,329Z" transform="translate(-93.8 -291.25)"/><path class="cls-1" d="M262.57,328a11.2,11.2,0,0,1-5.21-1.2,8.73,8.73,0,0,1-3.67-3.58,13.28,13.28,0,0,1,.07-11.81,10.07,10.07,0,0,1,3.74-3.81,9.92,9.92,0,0,1,5.07-1.35,8.49,8.49,0,0,1,4.7,1.16,9.6,9.6,0,0,1,2.83,2.73l-.29.77.53-3.74h5v20.3h-5.42V322.5l.53,1.29c-.13.19-.38.51-.75.94a9.27,9.27,0,0,1-1.58,1.41,9.81,9.81,0,0,1-2.4,1.3A8.72,8.72,0,0,1,262.57,328Zm1.48-4.42a6.86,6.86,0,0,0,2.64-.5,5.18,5.18,0,0,0,2-1.49,6.44,6.44,0,0,0,1.2-2.33v-4.41a5.54,5.54,0,0,0-1.27-2.19,6.39,6.39,0,0,0-2.11-1.46,6.73,6.73,0,0,0-2.67-.53,5.91,5.91,0,0,0-3.07.82,6,6,0,0,0-2.21,2.25,6.65,6.65,0,0,0-.81,3.31,6.47,6.47,0,0,0,.86,3.32,6.67,6.67,0,0,0,2.28,2.35A6,6,0,0,0,264.05,323.55Z" transform="translate(-93.8 -291.25)"/><path class="cls-1" d="M292.81,337.62a12.57,12.57,0,0,1-7.37-2.12,20.63,20.63,0,0,1-2.52-2l3.12-3.7A15.92,15.92,0,0,0,289,332a7.43,7.43,0,0,0,3.77.89,8.14,8.14,0,0,0,3.43-.67,5.56,5.56,0,0,0,2.3-1.87,4.76,4.76,0,0,0,.8-2.93l0-5.09.34,1.06a7.63,7.63,0,0,1-3,3.21,9.83,9.83,0,0,1-5.35,1.35,9.73,9.73,0,0,1-5.14-1.42,10.44,10.44,0,0,1-3.74-3.84,10.88,10.88,0,0,1-1.39-5.54,10.74,10.74,0,0,1,1.48-5.64,11.06,11.06,0,0,1,3.89-3.89,10,10,0,0,1,5.14-1.42,11.29,11.29,0,0,1,4.77,1,7.86,7.86,0,0,1,3.15,2.4l-.29.77.62-3.21h4.9v20.35a9,9,0,0,1-1.51,5.13,10.84,10.84,0,0,1-4.18,3.63A13.44,13.44,0,0,1,292.81,337.62ZM286.47,317a6.66,6.66,0,0,0,.84,3.32,6.32,6.32,0,0,0,2.3,2.35,6.44,6.44,0,0,0,3.29.86,7.25,7.25,0,0,0,2.86-.53,6.56,6.56,0,0,0,2.21-1.48,5.81,5.81,0,0,0,1.36-2.26v-4.46a5.84,5.84,0,0,0-1.34-2.21,6,6,0,0,0-2.23-1.47,8.07,8.07,0,0,0-2.86-.5,6.61,6.61,0,0,0-3.29.82,6,6,0,0,0-2.3,2.25A6.46,6.46,0,0,0,286.47,317Z" transform="translate(-93.8 -291.25)"/><path class="cls-1" d="M321.75,328a12.62,12.62,0,0,1-6.07-1.39,9.52,9.52,0,0,1-3.91-3.84,11.48,11.48,0,0,1-1.35-5.62A10.11,10.11,0,0,1,312,311.6a11.31,11.31,0,0,1,4.15-3.91,11.58,11.58,0,0,1,5.78-1.47,9.93,9.93,0,0,1,6.89,2.43,12.12,12.12,0,0,1,3.63,6.84L316,321l-1.2-3,12.72-4.56-1.06.68a6.14,6.14,0,0,0-1.73-2.57,4.76,4.76,0,0,0-3.31-1.08,5.47,5.47,0,0,0-3,.81,5.66,5.66,0,0,0-2,2.24,6.9,6.9,0,0,0-.75,3.28,7.06,7.06,0,0,0,.82,3.53,5.72,5.72,0,0,0,2.21,2.26,6.23,6.23,0,0,0,3.16.79,6.67,6.67,0,0,0,2.4-.43,9.34,9.34,0,0,0,2.16-1.15l2.45,4a14.58,14.58,0,0,1-3.48,1.61A12.13,12.13,0,0,1,321.75,328Z" transform="translate(-93.8 -291.25)"/></svg>