<?xml version="1.0" encoding="utf-8"?>
<!-- Generator: Adobe Illustrator 21.0.0, SVG Export Plug-In . SVG Version: 6.00 Build 0)  -->
<svg version="1.1" id="Layer_1" xmlns="http://www.w3.org/2000/svg" xmlns:xlink="http://www.w3.org/1999/xlink" x="0px" y="0px"
	 viewBox="0 0 1280 800" style="enable-background:new 0 0 1280 800;" xml:space="preserve">
<style type="text/css">
	.st0{fill:url(#SVGID_1_);}
	.st1{fill:url(#SVGID_2_);}
	.st2{fill:url(#SVGID_3_);}
	.st3{fill:url(#SVGID_4_);}
	.st4{fill:url(#SVGID_5_);}
	.st5{fill:url(#SVGID_6_);}
	.st6{fill:url(#SVGID_7_);}
	.st7{fill:url(#SVGID_8_);}
</style>
<g>
	
		<linearGradient id="SVGID_1_" gradientUnits="userSpaceOnUse" x1="516.3099" y1="261.7767" x2="516.3099" y2="398.64" gradientTransform="matrix(0.9908 -0.1354 -0.1354 -0.9908 76.3161 891.0051)">
		<stop  offset="0" style="stop-color:#2BC0EF"/>
		<stop  offset="0.5" style="stop-color:#00AAEA"/>
		<stop  offset="1" style="stop-color:#0091D6"/>
	</linearGradient>
	<path class="st0" d="M566.8,458.9c-5,4.9-9.8,9-14.6,12.2c-7.2,4.7-13.8,7.5-20,8.4c-6.9,0.9-12.6-0.6-17.1-4.5
		c-4.5-4-7.3-10-8.4-18c-1.7-12.7,1.1-28.7,8.4-48.2c4.6-11.8,10-20.8,16.2-26.9c6.2-6.2,12.5-9.7,18.8-10.5
		c5.3-0.7,9.9,0.4,13.8,3.3c0.2,0.2,0.4,0.3,0.6,0.5c0-2.9,0-5.8,0-8.7c-4.3-2.1-9.1-2.8-14.6-2.1c-7.7,1-15.3,5.1-22.8,12.3
		c-7.6,7.2-13.9,17.4-19.1,30.8c-7.6,19.5-10.4,36.1-8.5,50c1.4,10,5,17.5,10.9,22.4c5.9,4.9,13.2,6.8,22,5.6
		c6.9-0.9,14.2-3.8,21.9-8.6c7-4.4,14-10.2,20.9-17.7c-2.5,0-4.9,0-7.4,0C567.4,459,567.1,459,566.8,458.9z"/>
	
		<linearGradient id="SVGID_2_" gradientUnits="userSpaceOnUse" x1="699.6292" y1="261.7767" x2="699.6292" y2="398.64" gradientTransform="matrix(0.9908 -0.1354 -0.1354 -0.9908 76.3161 891.0051)">
		<stop  offset="0" style="stop-color:#2BC0EF"/>
		<stop  offset="0.5" style="stop-color:#00AAEA"/>
		<stop  offset="1" style="stop-color:#0091D6"/>
	</linearGradient>
	<path class="st1" d="M700.1,336.5c2.6,0,5.2,0,7.8,0c1.1-3.2,2.2-6.4,3.4-9.7l2.5-7c0.6-1.7,0-3.1-1.8-4.2s-3.6-1.5-5.6-1.3
		c-2.5,0.3-4,1.6-4.3,3.6c-0.8,5.3-2.6,11.4-5.2,18.5C698.9,336.5,700,336.5,700.1,336.5z"/>
	
		<linearGradient id="SVGID_3_" gradientUnits="userSpaceOnUse" x1="740.2056" y1="261.7767" x2="740.2056" y2="398.64" gradientTransform="matrix(0.9908 -0.1354 -0.1354 -0.9908 76.3161 891.0051)">
		<stop  offset="0" style="stop-color:#2BC0EF"/>
		<stop  offset="0.5" style="stop-color:#00AAEA"/>
		<stop  offset="1" style="stop-color:#0091D6"/>
	</linearGradient>
	<path class="st2" d="M779.7,329.1c-1.9-5.6-5.7-7.4-11.5-5.4c-3.5,1.2-7.1,3.3-10.6,6.3c-4.3,3.5-8.7,8-13.3,13.3
		c-4.5,5.3-8.9,11-13,17.1c-1.2,1.7-2.3,3.4-3.3,5.1c0,2.1,0,4.3,0,6.4c1.7-3,3.5-6.1,5.6-9.2c3.4-5.1,6.9-9.8,10.7-14.1
		c3.7-4.4,7.4-8,11.1-10.9c3.8-3,6.8-4.8,9.1-5.6c4.4-1.5,7.3-0.2,8.7,3.8c0.8,2.3,1,5.1,0.7,8.4c-0.3,6.7-1.5,14-3.7,22
		s-5.2,16-8.9,24c-3.8,8-8.2,15.4-13.2,22.2c-3.7,4.9-10.2,12.4-20,19.3c0,2.2,0,4.4,0,6.5c2.8-2,8.1-6.5,10.3-8.4
		c0.3-0.2,0.5-0.4,0.5-0.4l0,0c0.6-0.6,1.3-1.1,1.9-1.7c6.3-6,12-13.3,17.3-21.7c5.3-8.4,9.8-17.4,13.7-26.8
		c5.5-14.1,8.6-26.2,9.3-36.4C781.3,337.2,780.9,332.6,779.7,329.1z"/>
	
		<linearGradient id="SVGID_4_" gradientUnits="userSpaceOnUse" x1="646.363" y1="261.4831" x2="646.363" y2="398.3463" gradientTransform="matrix(1 0 0 -1 0 800)">
		<stop  offset="0" style="stop-color:#2BC0EF"/>
		<stop  offset="0.5" style="stop-color:#00AAEA"/>
		<stop  offset="1" style="stop-color:#0091D6"/>
	</linearGradient>
	<path class="st3" d="M691.9,451.9c-0.9,0-1.8-0.2-2.7-0.5c-0.1,0-0.3,0-0.4-0.1l0,0c-1.9-0.7-3.6-1.9-5.2-3.8
		c-3-3.4-4.5-7.8-4.7-13c-0.2-6,0.3-13.2,1.4-21.5c-1.8-0.4-2.5-1.6-2.5-4.1c0-7.6,0-15.2,0-22.9c0-2.8,1.2-4,4-4c1.4,0,2.8,0,4.3,0
		c2.3-9.8,4.8-19.4,7.6-28.7c-1.4,2.6-3.1,5.8-5.1,9.5s-4.2,7.9-6.6,12.7l-2.9,5.6c-2.4,4.8-4.7,9.1-6.7,12.8c-2,3.8-3.9,7.1-5.5,10
		c-0.2,0.3-0.7,1.1-1.4,2.3c-0.7,1.2-1.7,2.9-2.9,4.9s-2.5,4.1-3.9,6.3c-1.4,2.1-2.8,4.3-4.3,6.3c-6.7,9.9-11.5,15.1-14.2,15.5
		c-3.9,0.7-7.2-0.7-9.6-4.1c-2.5-3.4-4.2-8.4-5.1-14.9c-0.4-2.6-0.6-5.6-0.6-8.8c-0.3-10.2,0.7-23.6,3-40.2l2.3-16.9
		c0.4-2.3,0.5-4.4,0.5-6.3s0-3.6-0.1-5.2c-0.2-1.7,0.2-3,1.2-3.9s2.4-1.4,4.1-1.7c1.8-0.3,3.6-0.1,5.2,0.5c1.6,0.6,2.4,1.4,2.4,2.3
		c-0.1,2.6-0.2,5.2-0.5,7.9c-0.3,2.7-0.7,5.6-1.2,8.6c-0.1,1.1-0.4,2.5-0.9,4.4c-0.5,1.8-1.1,3.9-1.9,6.3l-1.6,5.7
		c-2,6.9-3.5,13.3-4.4,19.2c-0.9,5.9-1.3,11.9-1.2,17.9c-0.1,0.5,0,1.3,0.1,2.1c0.1,0.9,0.2,1.8,0.4,2.9c0.5,4,1.6,6.7,3.2,8.1
		c1.6,1.5,3.9,2.1,7,1.8c1.3-0.2,3-1.1,5-2.9c2-1.7,4-3.8,6.1-6.3c2.1-2.4,4.1-5,5.9-7.6c1.9-2.6,3.3-4.9,4.4-6.8
		c6.6-11.1,12.5-21.9,17.9-32.2c5.4-10.4,9.9-19.9,13.4-28.8c0.6-1.5,1.1-2.9,1.7-4.3c-18,0-103.7,0-104.3,0c-8.3,0-16.6,0-24.9,0
		c-2.2,0-3.1,0.9-3.1,3.1c0,8.9,0,17.8,0,26.7c1,0.5,2.1,1.1,3,1.8c5,3.5,7.9,8.4,8.8,14.7c0.6,4.8,0,9.9-2,15.4
		c-1.9,5.3-5.2,10.8-9.8,16.5c0,13.6,0,27.3,0,40.9c0,2.1,0.7,3,2.3,3.2c2.5-2.5,5-5.1,7.5-8c10.4-12.2,19.6-26.2,27.6-41.9
		c4-7.9,7.1-14,9.2-18.2c2.1-4.2,3.3-6.5,3.5-6.9c1.7-3.2,3.5-6.6,5.5-10.3c1.9-3.7,3.9-7.7,6-12c0.3-0.7,0.7-0.7,1.2,0
		c0.8,1,1,1.8,0.6,2.5c-2.4,4.9-5.1,10.8-8,17.5c-2.9,6.8-6.2,14.4-9.9,22.8l-2.8,6.2h0.2c-8.3,17.8-18.3,33.1-29.9,45.9
		c-0.8,0.8-1.5,1.7-2.3,2.5c48,0,95.9,0,143.9,0c5.4,0,9-3.6,9-9.1c0-3.8,0-7.7,0-11.5c-0.3,0.2-0.6,0.4-0.8,0.5
		C717.4,445.9,704.1,453,691.9,451.9z"/>
	
		<linearGradient id="SVGID_5_" gradientUnits="userSpaceOnUse" x1="712.8115" y1="261.4831" x2="712.8115" y2="398.3463" gradientTransform="matrix(1 0 0 -1 0 800)">
		<stop  offset="0" style="stop-color:#2BC0EF"/>
		<stop  offset="0.5" style="stop-color:#00AAEA"/>
		<stop  offset="1" style="stop-color:#0091D6"/>
	</linearGradient>
	<path class="st4" d="M697.7,367.4l-0.2-0.2c-1.5,5.1-2.7,10.1-3.9,14.9c12,0,23.9,0,35.9,0c2.7,0,3.9,1.2,3.9,4c0,7.7,0,15.3,0,23
		c0,3-1.1,4.2-4.1,4.2c-7.9,0-15.9,0-23.8,0c-5.8,0-11.6,0-17.4,0c-0.7,6.8-1,13.1-0.9,18.9c0.3,3.9,1.2,7.2,2.9,9.9
		c1,1.6,2.1,2.6,3.4,3.2c0.8,0.2,1.7,0.4,2.8,0.4c13.1-2.8,23.6-8.1,31.7-13.9c0-3.7,0-7.4,0-11.1c0-0.7,0-1.4,0-2.2
		c1,0,1.7,0,2.4,0c4.3-0.2,7.9-3.6,8-7.8c0.1-8.6,0.2-17.2,0-25.8c-0.1-4.4-3.8-7.8-8.2-7.9c-0.7,0-1.4-0.1-2.2-0.1
		c0-0.7,0-1.3,0-1.9c0-1,0-2.1,0-3.1c-1,1.9-2,3.8-2.9,5.6c-1.2,2.4-2.3,3.7-3.5,4.1c-0.6,0.2-1.1,0-1.3-0.6c-0.3-0.8,0-1.9,0.8-3.4
		c1.9-3.9,4.2-7.9,6.9-12.2c0-6.5,0-13.1,0-19.6c0-5.9-3.5-9.3-9.4-9.3c-3.6,0-7.2,0-10.8,0c-1.4,4-2.8,7.9-4.1,11.6
		C701.4,354.9,699.4,361.3,697.7,367.4z"/>
	
		<linearGradient id="SVGID_6_" gradientUnits="userSpaceOnUse" x1="567.7076" y1="261.4831" x2="567.7076" y2="398.3463" gradientTransform="matrix(1 0 0 -1 0 800)">
		<stop  offset="0" style="stop-color:#2BC0EF"/>
		<stop  offset="0.5" style="stop-color:#00AAEA"/>
		<stop  offset="1" style="stop-color:#0091D6"/>
	</linearGradient>
	<path class="st5" d="M569.4,399c1.4-4.4,1.9-8.5,1.4-12.2c-0.7-5-2.8-8.9-6.3-11.8c0,11.4,0,22.8,0,34.2
		C566.7,405.8,568.3,402.4,569.4,399z"/>
	
		<linearGradient id="SVGID_7_" gradientUnits="userSpaceOnUse" x1="724.156" y1="261.4831" x2="724.156" y2="398.3463" gradientTransform="matrix(1 0 0 -1 0 800)">
		<stop  offset="0" style="stop-color:#2BC0EF"/>
		<stop  offset="0.5" style="stop-color:#00AAEA"/>
		<stop  offset="1" style="stop-color:#0091D6"/>
	</linearGradient>
	<path class="st6" d="M720.4,381c0.2,0.6,0.6,0.8,1.3,0.6c1.1-0.4,2.3-1.8,3.5-4.1c0.9-1.9,1.9-3.8,2.9-5.6c0-2.1,0-4.3,0-6.4
		c-2.7,4.2-5,8.3-6.9,12.2C720.4,379.1,720.1,380.3,720.4,381z"/>
	
		<linearGradient id="SVGID_8_" gradientUnits="userSpaceOnUse" x1="691.514" y1="261.4831" x2="691.514" y2="398.3463" gradientTransform="matrix(1 0 0 -1 0 800)">
		<stop  offset="0" style="stop-color:#2BC0EF"/>
		<stop  offset="0.5" style="stop-color:#00AAEA"/>
		<stop  offset="1" style="stop-color:#0091D6"/>
	</linearGradient>
	<path class="st7" d="M692.4,387.4c-0.3,0-0.5,0-0.8,0c-3,0-5.6,1.2-7.5,3.1c-1.8,1.9-2.9,4.4-2.9,7.3c0,1.4,0.3,2.7,0.8,3.9
		c1.2,2.9,3.7,5.1,6.7,6c0.9,0.3,1.8,0.4,2.8,0.4c5.7,0,10.4-4.6,10.4-10.3C702,392.3,697.8,387.8,692.4,387.4z"/>
</g>
</svg>
